<?xml version="1.0" encoding="UTF-8" standalone="no"?>
<!-- Created with Inkscape (http://www.inkscape.org/) -->

<svg
   width="89.441238mm"
   height="60.336967mm"
   viewBox="0 0 89.441238 60.336967"
   version="1.1"
   id="svg5097"
   xmlns="http://www.w3.org/2000/svg"
   xmlns:svg="http://www.w3.org/2000/svg">
  <defs
     id="defs5094" />
  <g
     id="layer1"
     transform="translate(-11.412842,-6.7711146)">
    <g
       id="g5746"
       transform="translate(-43.589552,-67.970149)">
      <path
         style="fill:none;fill-opacity:0.501441;stroke:#000000;stroke-width:0.49;stroke-dasharray:none;stroke-opacity:1"
         d="m 85.08489,125.56986 5.672872,-0.002 7.899275,-24.93671 z"
         id="path595-0" />
      <path
         style="fill:none;fill-opacity:1;stroke:#000000;stroke-width:0.299005;stroke-opacity:1"
         d="m 94.034506,121.07183 3.290242,-0.005 1.133848,-15.85405 z"
         id="path4058-1" />
      <path
         style="fill:none;fill-opacity:1;stroke:#000000;stroke-width:0.49;stroke-dasharray:none;stroke-opacity:1"
         d="M 111.5539,115.85814 C 106.24,105.54591 99.17002,92.298712 96.034715,86.320045 l -5.700543,-10.870326 1.372131,-0.138512 c 0.754675,-0.07617 5.861682,-0.180067 11.348857,-0.23102 l 9.97669,-0.09255 4.70097,8.894511 c 17.78932,33.658522 26.31699,50.835372 26.31699,50.835372 -7.99233,0.055 -14.14211,0.16914 -22.73297,0.0868 z"
         id="path1054-6" />
      <path
         style="fill:none;fill-opacity:0.501441;stroke:#000000;stroke-width:0.49;stroke-dasharray:none;stroke-opacity:1"
         d="M 99.208402,97.360518 88.753338,77.103834 55.427806,134.60671 l 22.870455,-0.0234 z"
         id="path509-5" />
    </g>
  </g>
</svg>
